HIERARCHY
ROOT Hips
{
	OFFSET -0.001795 -0.223333 0.028219
	CHANNELS 6 Xposition Yposition Zposition Zrotation Yrotation Xrotation 
	JOINT LeftUpLeg
	{
		OFFSET 0.069520 -0.091406 -0.006815
		CHANNELS 3 Zrotation Yrotation Xrotation
		JOINT LeftLeg
		{
			OFFSET 0.034277 -0.375199 -0.004496
			CHANNELS 3 Zrotation Yrotation Xrotation
			JOINT LeftFoot
			{
				OFFSET -0.013596 -0.397961 -0.043693
				CHANNELS 3 Zrotation Yrotation Xrotation
				JOINT LeftToe
				{
					OFFSET 0.026358 -0.055791 0.119288
					CHANNELS 3 Zrotation Yrotation Xrotation
					End Site
					{
						OFFSET 0.000000 0.000000 0.000000
					}
				}
			}
		}
	}
	JOINT RightUpLeg
	{
		OFFSET -0.067670 -0.090522 -0.004320
		CHANNELS 3 Zrotation Yrotation Xrotation
		JOINT RightLeg
		{
			OFFSET -0.038290 -0.382569 -0.008850
			CHANNELS 3 Zrotation Yrotation Xrotation
			JOINT RightFoot
			{
				OFFSET 0.015774 -0.398415 -0.042312
				CHANNELS 3 Zrotation Yrotation Xrotation
				JOINT RightToe
				{
					OFFSET -0.025372 -0.048144 0.123348
					CHANNELS 3 Zrotation Yrotation Xrotation
					End Site
					{
						OFFSET 0.000000 0.000000 0.000000
					}
				}
			}
		}
	}
	JOINT Spine
	{
		OFFSET -0.002533 0.108963 -0.026696
		CHANNELS 3 Zrotation Yrotation Xrotation
		JOINT Spine1
		{
			OFFSET 0.005487 0.135180 0.001092
			CHANNELS 3 Zrotation Yrotation Xrotation
			JOINT Spine2
			{
				OFFSET 0.001457 0.052922 0.025425
				CHANNELS 3 Zrotation Yrotation Xrotation
				JOINT Neck
				{
					OFFSET -0.002778 0.213870 -0.042857
					CHANNELS 3 Zrotation Yrotation Xrotation
					JOINT Head
					{
						OFFSET 0.005152 0.064970 0.051349
						CHANNELS 3 Zrotation Yrotation Xrotation
						End Site
						{
							OFFSET 0.000000 0.000000 0.000000
						}
					}
				}
				JOINT LeftShoulder
				{
					OFFSET 0.078845 0.121749 -0.034090
					CHANNELS 3 Zrotation Yrotation Xrotation
					JOINT LeftArm
					{
						OFFSET 0.090977 0.030469 -0.008868
						CHANNELS 3 Zrotation Yrotation Xrotation
						JOINT LeftForeArm
						{
							OFFSET 0.259612 -0.012772 -0.027456
							CHANNELS 3 Zrotation Yrotation Xrotation
							JOINT LeftHand
							{
								OFFSET 0.249234 0.008986 -0.001171
								CHANNELS 3 Zrotation Yrotation Xrotation
								End Site
								{
									OFFSET 0.000000 0.000000 0.000000
								}
							}
						}
					}
				}
				JOINT RightShoulder
				{
					OFFSET -0.081759 0.118833 -0.038615
					CHANNELS 3 Zrotation Yrotation Xrotation
					JOINT RightArm
					{
						OFFSET -0.096012 0.032551 -0.009143
						CHANNELS 3 Zrotation Yrotation Xrotation
						JOINT RightForeArm
						{
							OFFSET -0.253742 -0.013329 -0.021401
							CHANNELS 3 Zrotation Yrotation Xrotation
							JOINT RightHand
							{
								OFFSET -0.255298 0.007772 -0.005559
								CHANNELS 3 Zrotation Yrotation Xrotation
								End Site
								{
									OFFSET 0.000000 0.000000 0.000000
								}
							}
						}
					}
				}
			}
		}
	}
}
MOTION
Frames: 16
Frame Time: 0.050000
0.000000 0.935009 0.000000 -1.889176 2.898861 1.745330 5.028179 0.162107 6.590191 -2.848702 0.346899 -7.490435 4.438140 10.944552 6.873946 0.000000 0.000000 0.000000 -2.875335 0.049381 0.160488 2.930248 -0.339285 -0.771953 -2.022730 -6.890625 5.616905 0.000000 0.000000 0.000000 -0.880435 -0.035308 1.402078 5.541133 -0.885764 -21.206658 -1.059066 -2.608733 27.855320 1.486198 0.512394 -25.486291 0.000000 0.000000 0.000000 -25.665100 0.727886 -1.765936 -55.629485 -6.606746 -6.144697 -4.139867 -23.964255 2.220836 0.000000 0.000000 0.000000 18.200677 4.995104 1.588357 58.012453 9.351664 -3.726509 -1.118491 23.699857 0.876622 0.000000 0.000000 0.000000 
-0.000460 0.935305 0.000047 -2.131528 1.761510 1.969718 5.357484 0.154669 6.550364 -2.977106 0.365223 -7.925871 5.207567 12.050874 5.896291 0.000000 0.000000 0.000000 -3.043531 0.141131 -0.888593 3.374721 -0.367056 0.346208 -1.570605 -5.793421 5.065385 0.000000 0.000000 0.000000 -0.493217 -0.024142 0.839196 5.194125 -0.838973 -20.850607 -0.911220 -2.105502 27.996041 2.401598 -0.092097 -25.060509 0.000000 0.000000 0.000000 -25.776352 1.784334 -2.351273 -55.529254 -6.121102 -6.384702 -4.485965 -24.616009 2.391291 0.000000 0.000000 0.000000 17.012279 5.239385 1.675143 59.836171 8.658724 -4.120573 -1.269815 25.274745 0.923238 0.000000 0.000000 0.000000 
-0.000630 0.935461 -0.000138 -1.838675 2.136167 2.030784 5.340198 0.131912 6.132422 -3.711410 0.387184 -7.279871 5.239761 12.166000 6.149148 0.000000 0.000000 0.000000 -3.231060 0.120255 -0.593265 3.309386 -0.367212 -0.128465 -1.533517 -5.710829 5.134289 0.000000 0.000000 0.000000 -0.361548 -0.040405 1.194062 5.120633 -0.776832 -21.333225 -1.255911 -2.731927 28.410071 1.465681 0.385482 -24.986759 0.000000 0.000000 0.000000 -26.090718 1.890713 -2.295872 -55.607255 -6.964593 -6.078682 -3.027105 -23.606789 2.005335 0.000000 0.000000 0.000000 17.699568 5.442166 1.677117 58.945615 9.187276 -3.854966 -1.209395 24.947378 0.895751 0.000000 0.000000 0.000000 
-0.000766 0.935655 -0.000165 -2.086928 1.999821 1.710086 5.261998 0.157866 6.484866 -3.373935 0.375075 -7.043189 5.676050 12.816567 5.537485 0.000000 0.000000 0.000000 -3.368142 0.142284 -0.888387 3.629638 -0.396786 0.629704 -1.294222 -5.197606 5.174964 0.000000 0.000000 0.000000 -0.336311 -0.043367 1.244093 5.566232 -0.923473 -21.045141 -1.309345 -2.808170 28.441443 1.440168 0.288332 -23.783248 0.000000 0.000000 0.000000 -26.383767 2.404804 -2.593921 -55.886358 -6.582994 -6.281573 -2.686847 -24.239951 2.019109 0.000000 0.000000 0.000000 17.010112 5.818498 1.852032 58.925938 8.932262 -3.981294 -0.941445 25.712392 0.974273 0.000000 0.000000 0.000000 
-0.000984 0.936121 -0.000186 -2.072158 2.669305 1.543669 5.120607 0.164510 6.682550 -3.203771 0.361387 -7.230397 5.652531 12.863650 5.984476 0.000000 0.000000 0.000000 -3.291904 0.094990 -0.334742 3.216995 -0.359547 0.074761 -1.336658 -5.305833 5.351453 0.000000 0.000000 0.000000 -0.205278 -0.064308 1.690176 5.645942 -0.959622 -20.681993 -1.662240 -3.155941 27.911567 1.121189 0.485503 -23.520923 0.000000 0.000000 0.000000 -26.304571 2.393783 -2.638658 -56.035145 -6.573570 -6.219844 -2.599320 -24.031348 1.966565 0.000000 0.000000 0.000000 17.269426 5.683304 1.775522 58.698342 8.870600 -3.928155 -0.762932 25.687008 1.002357 0.000000 0.000000 0.000000 
-0.001093 0.936313 -0.000049 -2.088949 3.160309 1.492439 5.065692 0.162611 6.779582 -2.950353 0.347356 -7.398362 5.631486 12.844155 6.040314 0.000000 0.000000 0.000000 -3.289724 0.075835 -0.125547 3.119865 -0.352912 0.007542 -1.453666 -5.606896 5.589685 0.000000 0.000000 0.000000 -0.368792 -0.066175 1.856240 5.843987 -0.969639 -21.149087 -1.701907 -3.544157 28.438898 0.766689 0.672928 -23.441790 0.000000 0.000000 0.000000 -26.482612 2.554384 -2.713904 -56.031622 -6.758913 -6.196753 -2.391198 -24.087973 1.942446 0.000000 0.000000 0.000000 17.112505 5.827239 1.854819 58.342933 8.631206 -4.091945 -0.519795 25.860963 1.058405 0.000000 0.000000 0.000000 
-0.001220 0.936659 0.000147 -2.068198 3.700738 1.354144 5.076329 0.155607 6.885737 -3.019515 0.344324 -7.315614 5.543644 12.729453 6.186368 0.000000 0.000000 0.000000 -3.282129 0.058697 0.036904 2.913461 -0.330625 0.223603 -1.334955 -5.273989 5.476859 0.000000 0.000000 0.000000 -0.442805 -0.074362 2.124119 5.907345 -0.992890 -20.944047 -1.866542 -3.881676 28.329593 0.729548 0.700777 -23.543884 0.000000 0.000000 0.000000 -26.618946 2.637635 -2.787147 -55.870377 -6.532038 -6.286676 -2.168269 -23.924632 1.879350 0.000000 0.000000 0.000000 17.174652 5.859325 1.873180 58.252343 8.489344 -4.151871 -0.496204 26.045976 1.072680 0.000000 0.000000 0.000000 
-0.001310 0.936577 0.000384 -2.065078 3.930113 1.055739 4.985246 0.169394 7.083220 -3.002797 0.340468 -6.885822 5.727709 12.951187 5.679079 0.000000 0.000000 0.000000 -3.313317 0.041522 0.217548 2.986743 -0.339034 0.413881 -1.478080 -5.509722 5.239412 0.000000 0.000000 0.000000 -0.481346 -0.090973 2.582458 5.911363 -0.976578 -21.140539 -2.033966 -3.888883 28.836500 0.543135 0.794266 -22.972813 0.000000 0.000000 0.000000 -26.617687 2.402104 -2.662354 -55.523042 -6.690672 -6.239060 -1.966639 -23.492520 1.792142 0.000000 0.000000 0.000000 17.511835 5.714086 1.840773 57.976593 8.300733 -4.298085 -0.212485 26.401657 1.165339 0.000000 0.000000 0.000000 
-0.001437 0.936488 0.000652 -1.995650 4.322436 0.985474 4.866964 0.169040 7.000369 -2.968716 0.334920 -6.697297 5.614229 12.733781 5.558074 0.000000 0.000000 0.000000 -3.493052 0.042881 0.192524 3.002247 -0.341283 0.632271 -1.785385 -6.111777 5.014988 0.000000 0.000000 0.000000 -0.601749 -0.090513 2.676635 5.898222 -0.983088 -20.900021 -2.071679 -3.914549 28.850236 0.514032 0.828304 -22.696397 0.000000 0.000000 0.000000 -26.095284 2.278666 -2.609759 -55.881626 -6.583298 -6.302146 -1.772593 -22.975822 1.697905 0.000000 0.000000 0.000000 17.691375 5.542021 1.804331 57.780365 8.261136 -4.318490 -0.226800 26.246089 1.164082 0.000000 0.000000 0.000000 
-0.001625 0.936473 0.000996 -1.994861 4.745968 0.794492 4.843249 0.170693 7.180727 -2.974720 0.331022 -6.597452 5.501114 12.473608 5.249452 0.000000 0.000000 0.000000 -3.595194 0.036959 0.224587 2.987181 -0.339420 0.946324 -1.982346 -6.489726 4.855769 0.000000 0.000000 0.000000 -0.805039 -0.093874 2.948455 6.050505 -1.014119 -20.963946 -2.249099 -3.810008 29.229627 0.201795 1.054485 -22.267898 0.000000 0.000000 0.000000 -25.692240 2.387030 -2.753369 -56.247239 -6.838736 -6.223774 -1.685089 -22.323058 1.615485 0.000000 0.000000 0.000000 17.918751 5.312973 1.788466 57.638181 8.403840 -4.298874 -0.496948 26.253223 1.134438 0.000000 0.000000 0.000000 
-0.001861 0.936331 0.001453 -1.979186 5.342416 0.660541 5.084113 0.138860 7.253351 -3.173357 0.332636 -6.613544 5.207299 11.909078 5.020760 0.000000 0.000000 0.000000 -3.612133 0.030374 0.235255 3.025714 -0.345097 1.359756 -2.282429 -7.047986 4.486649 0.000000 0.000000 0.000000 -0.987073 -0.102012 3.351740 5.924935 -0.966821 -20.972890 -2.181730 -3.904460 29.358436 0.163976 1.124356 -22.366687 0.000000 0.000000 0.000000 -25.563660 2.310035 -2.786410 -56.164374 -6.913788 -6.181187 -1.589434 -21.932162 1.552034 0.000000 0.000000 0.000000 17.874441 4.969500 1.687972 57.824897 8.182356 -4.441758 -0.390138 25.791499 1.150694 0.000000 0.000000 0.000000 
-0.002250 0.936463 0.002055 -2.003854 5.682445 0.435449 5.249001 0.124426 7.461360 -3.031406 0.324106 -6.563514 4.789753 11.151944 4.925534 0.000000 0.000000 0.000000 -3.621454 0.053653 -0.150146 3.049152 -0.341472 2.576695 -2.516134 -7.432380 3.908600 0.000000 0.000000 0.000000 -1.272319 -0.117382 4.108091 6.005358 -0.978327 -21.046462 -2.118754 -3.935303 29.541258 0.009254 1.272597 -22.799982 0.000000 0.000000 0.000000 -25.082975 2.427036 -2.860013 -56.421292 -7.247998 -6.060406 -1.967820 -21.701392 1.599016 0.000000 0.000000 0.000000 17.883753 4.885802 1.699357 58.127563 8.197053 -4.482592 -0.548895 25.415279 1.112854 0.000000 0.000000 0.000000 
-0.002746 0.936229 0.002952 -2.216609 5.841807 0.141214 5.539058 0.102258 7.711158 -3.023456 0.322227 -6.400770 4.674041 10.845422 4.534810 0.000000 0.000000 0.000000 -3.582704 0.092732 -0.745490 3.440298 -0.395885 4.192220 -2.704321 -7.727018 3.307153 0.000000 0.000000 0.000000 -1.388505 -0.139491 4.869853 6.008856 -0.986956 -20.943418 -1.968995 -3.870122 29.653500 -0.260321 1.475014 -22.915090 0.000000 0.000000 0.000000 -24.680130 2.314072 -2.793035 -56.723119 -7.330370 -6.051824 -2.566306 -21.647508 1.699354 0.000000 0.000000 0.000000 17.690618 4.730062 1.666168 58.673851 8.493827 -4.377971 -0.841524 24.822017 1.037361 0.000000 0.000000 0.000000 
-0.003577 0.936158 0.004421 -2.239492 5.864409 -0.125489 5.567567 0.116457 8.242123 -3.007181 0.321879 -6.568279 4.585154 10.636704 4.357525 0.000000 0.000000 0.000000 -3.763156 0.161718 -1.766818 3.621058 -0.429981 6.749704 -2.726583 -7.612431 2.584079 0.000000 0.000000 0.000000 -1.647109 -0.159065 5.826764 5.998529 -0.988589 -20.877105 -1.833104 -3.991119 29.713139 -0.531636 1.648932 -23.435034 0.000000 0.000000 0.000000 -24.512937 2.356824 -2.753120 -56.996701 -7.518642 -6.008432 -3.022978 -21.581037 1.786157 0.000000 0.000000 0.000000 17.586644 4.886796 1.727521 59.198102 8.621798 -4.350754 -1.576970 24.893659 0.901827 0.000000 0.000000 0.000000 
-0.005167 0.935619 0.006710 -2.355973 5.891912 -0.350775 5.709652 0.113711 8.660746 -2.950122 0.319451 -6.478959 4.526880 10.462314 4.110702 0.000000 0.000000 0.000000 -3.902185 0.253725 -3.191062 4.006445 -0.530465 9.907606 -3.014341 -8.078210 1.594917 0.000000 0.000000 0.000000 -1.842488 -0.173441 6.575000 6.054264 -1.003857 -20.898320 -1.877108 -4.201173 29.853507 -0.491023 1.587431 -23.404645 0.000000 0.000000 0.000000 -24.060499 2.401249 -2.656205 -57.269425 -7.375483 -6.127883 -3.902749 -22.064092 2.011907 0.000000 0.000000 0.000000 17.325195 4.948395 1.720532 59.776135 8.731451 -4.331002 -1.416649 25.091737 0.942789 0.000000 0.000000 0.000000 
-0.008333 0.935121 0.010075 -2.378525 5.687795 -0.478202 5.901621 0.113818 9.207083 -3.031368 0.324702 -6.420482 5.000395 11.184377 3.620682 0.000000 0.000000 0.000000 -3.857693 0.356430 -4.736777 3.863348 -0.527271 12.776589 -3.327343 -8.579297 0.394363 0.000000 0.000000 0.000000 -2.043558 -0.188183 7.439654 6.124954 -1.026836 -20.953996 -1.827626 -4.342249 30.206018 -0.803528 1.772933 -24.274396 0.000000 0.000000 0.000000 -23.978162 2.125849 -2.381472 -57.330028 -7.716914 -6.015736 -4.483556 -22.490027 2.179702 0.000000 0.000000 0.000000 17.294796 5.219934 1.807738 60.253972 8.945020 -4.279390 -2.068383 25.764358 0.845366 0.000000 0.000000 0.000000 
